<!-- Generated by IcoMoon.io -->
<svg version="1.1" xmlns="http://www.w3.org/2000/svg" width="32" height="32" viewBox="0 0 32 32">
<path fill="#ff5b02" d="M13.288 1.938h0.285l0.686 0.034 0.703 0.068 0.67 0.102 0.636 0.136 0.536 0.136 0.552 0.17 0.653 0.239 0.485 0.205 0.452 0.205 0.268 0.136 0.385 0.205 0.402 0.239 0.218 0.136 0.318 0.205 0.335 0.239 0.234 0.17 0.218 0.17 0.268 0.222 0.184 0.153 0.201 0.17-0.017 0.188-0.084 0.392-0.050 0.307-0.034 0.392v0.597l0.050 0.511 0.084 0.443 0.117 0.443 0.1 0.29 0.033 0.085v0.102l-0.134 0.256-0.167 0.358-0.167 0.324-0.151 0.324-0.552 1.125-0.084 0.068-0.201 0.119-0.184 0.17-0.067 0.068h-0.034l-0.033 0.068-0.134 0.17-0.234 0.375-0.201 0.324-0.301 0.511-0.268 0.46-0.151 0.273-0.151 0.256-0.1 0.188-0.234 0.443-0.251 0.477-0.234 0.46-0.184 0.358-0.184 0.392-0.218 0.443-0.218 0.477-0.084 0.17-0.151 0.034-0.502 0.085-0.469 0.119-0.385 0.136-0.419 0.188-0.285 0.153-0.285 0.188-0.201 0.153-0.184 0.153-0.201 0.188-0.218 0.222-0.301 0.375-0.184 0.273-0.218 0.375-0.218 0.46-0.167 0.443-0.134 0.477-0.084 0.375-0.067 0.409-0.050 0.477-0.017 0.358-0.017 1.040-0.067 0.443-0.1 0.358-0.117 0.307-0.134 0.273-0.134 0.239-0.234 0.324-0.201 0.222-0.167 0.17-0.184 0.153-0.234 0.171-0.251 0.153-0.251 0.136-0.385 0.153-0.352 0.102-0.385 0.068-0.184 0.017h-0.502l-0.385-0.051-0.385-0.102-0.318-0.119-0.385-0.187-0.385-0.222-0.368-0.222-0.285-0.188-0.402-0.273-0.218-0.17-0.268-0.205-0.268-0.222-0.184-0.153-0.201-0.188-0.134-0.119-0.167-0.153-0.636-0.648-0.151-0.188-0.218-0.239-0.184-0.239-0.167-0.205-0.201-0.273-0.201-0.29-0.268-0.409-0.201-0.324-0.201-0.358-0.201-0.375-0.251-0.511-0.184-0.426-0.184-0.46-0.234-0.682-0.167-0.58-0.167-0.699-0.134-0.75-0.084-0.682-0.050-0.597-0.017-0.358v-0.818l0.033-0.682 0.084-0.784 0.1-0.631 0.151-0.716 0.167-0.631 0.251-0.784 0.218-0.563 0.285-0.648 0.184-0.375 0.201-0.375 0.234-0.409 0.184-0.29 0.234-0.358 0.167-0.239 0.234-0.324 0.184-0.222 0.167-0.222 0.201-0.222 0.1-0.136h0.034l0.033-0.068 0.251-0.273 0.402-0.409 0.134-0.119 0.084-0.085h0.034v-0.034l0.184-0.153 0.167-0.153 0.184-0.153 0.251-0.205 0.268-0.205 0.335-0.239 0.352-0.239 0.385-0.239 0.285-0.17 0.285-0.153 0.318-0.17 0.502-0.239 0.619-0.256 0.569-0.205 0.552-0.17 0.67-0.17 0.586-0.119 0.82-0.119 0.552-0.051 0.887-0.034zM16.033 7.307l-0.335 0.068-0.268 0.102-0.201 0.102-0.268 0.188-0.218 0.205-0.151 0.188-0.117 0.17-0.151 0.29-0.117 0.358-0.050 0.324v0.392l0.050 0.307 0.084 0.273 0.084 0.205 0.134 0.239 0.184 0.239 0.218 0.222 0.234 0.17 0.201 0.119 0.251 0.102 0.218 0.068 0.335 0.051h0.318l0.318-0.051 0.268-0.085 0.301-0.136 0.201-0.136 0.151-0.119 0.134-0.119v-0.034h0.033l0.151-0.188 0.151-0.239 0.134-0.273 0.084-0.273 0.050-0.29v-0.494l-0.050-0.29-0.117-0.358-0.151-0.29-0.167-0.239-0.1-0.119-0.134-0.119-0.184-0.153-0.285-0.17-0.285-0.119-0.268-0.068-0.134-0.017h-0.536zM8.5 8.483l-0.285 0.051-0.352 0.119-0.251 0.136-0.234 0.17-0.201 0.188-0.151 0.188-0.117 0.17-0.151 0.29-0.117 0.358-0.050 0.29v0.46l0.050 0.29 0.084 0.273 0.117 0.273 0.167 0.256 0.184 0.222 0.067 0.068h0.034v0.034l0.218 0.17 0.251 0.153 0.335 0.136 0.301 0.068 0.134 0.017h0.419l0.419-0.085 0.251-0.102 0.234-0.119 0.234-0.17 0.218-0.205 0.184-0.222 0.151-0.256 0.117-0.273 0.084-0.29 0.033-0.222v-0.46l-0.033-0.222-0.067-0.256-0.084-0.222-0.117-0.239-0.201-0.29-0.234-0.239-0.285-0.205-0.251-0.136-0.352-0.119-0.268-0.051h-0.486zM7.345 16l-0.418 0.085-0.301 0.119-0.301 0.188-0.234 0.205-0.151 0.153-0.184 0.256-0.151 0.29-0.084 0.222-0.067 0.29-0.033 0.29v0.188l0.050 0.375 0.084 0.307 0.151 0.324 0.134 0.205 0.184 0.222 0.218 0.205 0.251 0.17 0.318 0.153 0.352 0.102 0.251 0.034h0.335l0.318-0.051 0.268-0.085 0.268-0.119 0.184-0.119 0.218-0.17 0.234-0.239 0.167-0.239 0.151-0.29 0.1-0.307 0.050-0.239 0.017-0.188v-0.324l-0.050-0.324-0.084-0.29-0.151-0.324-0.134-0.205-0.184-0.222-0.201-0.188-0.251-0.17-0.268-0.136-0.251-0.085-0.234-0.051-0.117-0.017h-0.452z"></path>
<path fill="#ff5b02" d="M22.964 10.341l0.067 0.034 0.1 0.136 0.184 0.205 0.335 0.341 0.234 0.188 0.201 0.153 0.335 0.222 0.368 0.205 0.402 0.188 0.368 0.136 0.352 0.102 0.485 0.102 0.435 0.051 0.686 0.034-0.017 0.102-0.234 0.58-0.318 0.784-0.234 0.58-0.067 0.17 0.017 0.102 0.067 0.085 0.067 0.188 0.017 0.17-0.067 0.307-0.268 0.903-0.268 0.835-0.268 0.784-0.268 0.733-0.268 0.699-0.251 0.631-0.268 0.648-0.301 0.699-0.218 0.494-0.134 0.273-0.134 0.307-0.167 0.324-0.151 0.29-0.134 0.273-0.285 0.545-0.151 0.273-0.167 0.29-0.1 0.188-0.402 0.682-0.201 0.324-0.234 0.375-0.218 0.341-0.419 0.631-0.201 0.29-0.218 0.307-0.234 0.324-0.167 0.222-0.218 0.29-0.184 0.239-0.151 0.187-0.184 0.222-0.301 0.375h-0.033l-0.034 0.068-0.218 0.239-0.117 0.136-0.084 0.102h-0.033l-0.034 0.068-0.552 0.563-0.134 0.119-0.201 0.187-0.234 0.187-0.218 0.17-0.301 0.205-0.268 0.154-0.218 0.102-0.268 0.085-0.117 0.017h-0.218l-0.167-0.051-0.167-0.102-0.117-0.119-0.117-0.187-0.1-0.239-0.084-0.341-0.050-0.341-0.034-0.443v-0.631l0.034-0.631 0.084-0.835 0.1-0.767 0.134-0.818 0.167-0.852 0.134-0.631 0.201-0.818 0.201-0.767 0.201-0.682 0.218-0.699 0.251-0.75 0.184-0.511 0.268-0.699 0.285-0.699 0.201-0.46 0.251-0.563 0.301-0.648 0.318-0.665 0.151-0.29 0.134-0.273 0.151-0.29 0.134-0.273 0.251-0.477 0.268-0.494 0.234-0.409 0.201-0.358 0.151-0.256 0.285-0.477 0.234-0.375 0.134-0.205 0.117-0.119 0.201-0.102 0.201-0.034 0.050-0.017 0.017-0.068 0.134-0.273 0.201-0.426 0.686-1.398z"></path>
<path fill="#ff5b02" d="M29.945 0.080l0.201 0.034 0.151 0.068 0.184 0.102 0.218 0.17 0.184 0.17 0.184 0.239 0.167 0.256 0.184 0.392 0.117 0.324 0.134 0.511 0.084 0.494 0.050 0.511 0.017 0.239v1.227l-0.033 0.545-0.084 0.75-0.101 0.631-0.101 0.494-0.134 0.528-0.184 0.563-0.151 0.358-0.184 0.358-0.201 0.307-0.184 0.239-0.184 0.205-0.017 0.034h-0.034v0.034h-0.033v0.034l-0.134 0.119-0.218 0.188-0.234 0.17-0.301 0.188-0.285 0.153-0.385 0.153-0.335 0.102-0.402 0.085-0.435 0.051h-0.469l-0.452-0.051-0.419-0.102-0.268-0.085-0.335-0.136-0.268-0.136-0.234-0.136-0.285-0.205-0.167-0.136-0.167-0.153-0.318-0.324-0.184-0.239-0.151-0.222-0.201-0.341-0.184-0.409-0.151-0.46-0.084-0.375-0.050-0.358-0.017-0.222v-0.307l0.033-0.392 0.084-0.46 0.134-0.443 0.151-0.358 0.184-0.307 0.134-0.205 0.218-0.29 0.151-0.17 0.017-0.034h0.033l0.034-0.068 0.134-0.136 0.184-0.153 0.218-0.17 0.335-0.205 0.285-0.136 0.301-0.119 0.419-0.136 0.636-0.188 0.435-0.153 0.318-0.153 0.301-0.188 0.268-0.205 0.184-0.17h0.034v-0.034l0.134-0.119 0.034-0.051h0.033l0.034-0.068 0.184-0.205 0.167-0.222 0.218-0.307 0.268-0.426 0.134-0.17 0.134-0.102 0.167-0.068 0.151-0.017z"></path>
</svg>
