<!-- Generated by IcoMoon.io -->
<svg version="1.1" xmlns="http://www.w3.org/2000/svg" width="32" height="32" viewBox="0 0 32 32">
<path fill="#ff5b02" d="M15.016 9.625h1.984l0.797 0.031 0.734 0.063 0.656 0.078 0.594 0.094 0.688 0.141 0.688 0.172 0.469 0.141 0.422 0.141 0.422 0.156 0.375 0.156 0.391 0.172 0.297 0.141 0.297 0.156 0.391 0.219 0.359 0.219 0.391 0.266 0.281 0.203 0.219 0.172 0.266 0.219 0.156 0.141 0.125 0.109 0.234 0.219 0.266 0.266 0.109 0.125 0.172 0.188 0.141 0.172 0.187 0.234 0.203 0.281 0.313 0.469 0.234 0.391 0.219 0.391 0.281 0.563 0.203 0.469 0.203 0.531 0.172 0.516 0.172 0.625 0.141 0.656 0.094 0.594 0.062 0.547 0.031 0.484v1.109l-0.031 0.5-0.062 0.563-0.094 0.563-0.109 0.531-0.125 0.484-0.156 0.516-0.156 0.438-0.172 0.438-0.234 0.516-0.234 0.453-0.094 0.156-0.219 0.344-0.203 0.281-0.125 0.156-0.187 0.219-0.219 0.219-0.172 0.141-0.156 0.125-0.234 0.156-0.281 0.156-0.297 0.125-0.312 0.094-0.25 0.047-0.172 0.015h-0.281l-0.266-0.031-0.266-0.062-0.297-0.125-0.172-0.094-0.219-0.156-0.188-0.172-0.141-0.141-0.172-0.219-0.109-0.156-0.188-0.313-0.188-0.375-0.188-0.437-0.25-0.641-0.219-0.547-0.172-0.406-0.234-0.469-0.172-0.297-0.188-0.297-0.188-0.266-0.141-0.188-0.25-0.313-0.047-0.047 0.016-0.078 0.109-0.156 0.125-0.25 0.094-0.266 0.047-0.281v-0.375l-0.047-0.313-0.078-0.234-0.141-0.297-0.156-0.219-0.109-0.125-0.047-0.031-0.094-0.109-0.094-0.062h-0.031l-0.078-0.078-0.25-0.141-0.266-0.094-0.281-0.063-0.141-0.016h-0.266l-0.312 0.047-0.25 0.078-0.25 0.109-0.219 0.141-0.234 0.203-0.172 0.203-0.063 0.094-0.063-0.016-0.312-0.125-0.438-0.141-0.328-0.078-0.109-0.016h-0.359l-0.313 0.063-0.422 0.125-0.406 0.156-0.062 0.031h-0.047l-0.141-0.188-0.141-0.156-0.188-0.156-0.203-0.125-0.266-0.125-0.25-0.078-0.312-0.047h-0.266l-0.25 0.031-0.328 0.094-0.297 0.141-0.219 0.156-0.188 0.172-0.125 0.141-0.156 0.234-0.141 0.297-0.078 0.281-0.031 0.203v0.406l0.047 0.266 0.094 0.281 0.125 0.25 0.125 0.172-0.016 0.078-0.172 0.203-0.156 0.203-0.203 0.281-0.125 0.188-0.141 0.219-0.094 0.172-0.141 0.25-0.188 0.375-0.25 0.594-0.25 0.656-0.25 0.609-0.172 0.375-0.188 0.344-0.125 0.187-0.203 0.266-0.188 0.203-0.172 0.141-0.219 0.156-0.234 0.125-0.25 0.094-0.359 0.078-0.172 0.015h-0.344l-0.328-0.047-0.313-0.094-0.297-0.125-0.297-0.156-0.234-0.156-0.25-0.203-0.156-0.141-0.234-0.234-0.141-0.172-0.203-0.266-0.141-0.203-0.203-0.328-0.141-0.25-0.188-0.359-0.172-0.375-0.172-0.422-0.141-0.391-0.141-0.422-0.125-0.453-0.109-0.453-0.109-0.563-0.078-0.547-0.063-0.641-0.016-0.297v-0.984l0.031-0.5 0.063-0.563 0.078-0.5 0.125-0.625 0.125-0.484 0.172-0.562 0.188-0.531 0.25-0.594 0.219-0.453 0.156-0.313 0.203-0.359 0.125-0.203 0.219-0.344 0.172-0.25 0.156-0.219 0.219-0.281 0.141-0.156 0.125-0.156 0.219-0.234 0.469-0.469 0.125-0.109 0.219-0.188 0.25-0.203 0.312-0.234 0.313-0.219 0.313-0.203 0.313-0.188 0.453-0.25 0.5-0.25 0.391-0.172 0.422-0.172 0.516-0.188 0.719-0.219 0.75-0.188 0.641-0.125 0.578-0.094 0.484-0.063 0.469-0.047 0.672-0.047 0.594-0.016zM7.609 14.281l-0.078 0.063-0.016 0.031-0.016 1.984h-1.953l-0.078 0.047-0.031 0.047v1.781l0.063 0.078 0.031 0.016 1.516 0.016h0.453l0.016 1.969 0.063 0.078 0.031 0.016h1.781l0.078-0.062 0.016-0.047 0.016-1.938 0.109-0.016h0.938l0.922-0.016 0.078-0.063 0.016-0.031v-1.75l-0.047-0.094-0.047-0.031-1.969-0.016-0.016-1.953-0.063-0.094-0.031-0.016h-1.781zM23.359 14.281l-0.25 0.063-0.188 0.109-0.188 0.172-0.109 0.156-0.078 0.203-0.031 0.141v0.297l0.047 0.188 0.094 0.188 0.125 0.156 0.156 0.141 0.219 0.109 0.203 0.047h0.297l0.172-0.047 0.25-0.125 0.188-0.172 0.109-0.156 0.078-0.203 0.031-0.141v-0.281l-0.047-0.188-0.125-0.25-0.172-0.188-0.203-0.125-0.219-0.078-0.094-0.016h-0.266zM21.297 16.359l-0.25 0.062-0.172 0.094-0.156 0.125-0.094 0.109-0.094 0.156-0.063 0.156-0.031 0.156v0.281l0.063 0.219 0.109 0.203 0.141 0.156 0.141 0.109 0.188 0.094 0.203 0.047h0.313l0.25-0.078 0.156-0.094 0.188-0.172 0.109-0.156 0.078-0.188 0.031-0.141v-0.297l-0.047-0.188-0.109-0.219-0.109-0.141-0.125-0.109-0.188-0.109-0.203-0.063-0.078-0.016h-0.25zM25.469 16.359l-0.219 0.047-0.141 0.063-0.141 0.094-0.141 0.125-0.109 0.156-0.094 0.203-0.031 0.156v0.297l0.047 0.188 0.109 0.219 0.172 0.188 0.141 0.109 0.172 0.078 0.188 0.047h0.328l0.25-0.078 0.172-0.109 0.156-0.141 0.109-0.156 0.078-0.172 0.047-0.219v-0.219l-0.031-0.156-0.078-0.188-0.094-0.156-0.109-0.125-0.156-0.109-0.156-0.078-0.25-0.062h-0.219zM23.375 18.438l-0.25 0.063-0.172 0.094-0.156 0.125-0.141 0.172-0.094 0.203-0.047 0.203v0.281l0.063 0.219 0.078 0.156 0.109 0.141 0.109 0.109 0.141 0.094 0.203 0.078 0.141 0.031h0.297l0.219-0.062 0.156-0.078 0.172-0.141 0.109-0.125 0.078-0.141 0.063-0.156 0.031-0.141v-0.266l-0.047-0.203-0.109-0.219-0.125-0.156-0.156-0.125-0.219-0.109-0.219-0.047h-0.234z"></path>
<path fill="#ff5b02" d="M7.828 14.594h1.328l0.016 0.016 0.016 1.891 0.031 0.109 0.031 0.031 0.063 0.016 1.938 0.016v1.344l-0.125 0.016-1.859 0.016-0.063 0.063-0.016 0.109v1.844l-0.031 0.031h-1.328l-0.016-0.016-0.016-1.953-0.031-0.063-0.031-0.016-1.953-0.016-0.047-0.047v-1.234l0.031-0.078 1.922-0.016 0.094-0.047 0.016-0.016 0.016-1.984 0.016-0.016z"></path>
<path fill="#ff5b02" d="M19.234 3.109h0.547l0.391 0.062 0.313 0.094 0.266 0.109 0.266 0.141 0.188 0.125 0.203 0.156 0.203 0.203 0.141 0.172 0.156 0.219 0.125 0.203 0.156 0.281 0.266 0.563 0.156 0.313 0.172 0.281 0.156 0.203 0.188 0.188 0.219 0.141 0.234 0.094 0.234 0.047h0.422l0.25-0.047 0.328-0.109 0.359-0.188 0.172-0.125 0.203-0.172 0.047-0.047h0.031v-0.031h0.031v-0.031h0.031l0.031-0.063 0.109-0.109 0.141-0.172 0.156-0.203 0.156-0.234 0.219-0.344 0.234-0.406 0.125-0.203 0.109-0.094 0.141-0.047 0.156 0.031 0.094 0.062 0.078 0.094 0.047 0.109v0.109l-0.062 0.141-0.172 0.312-0.156 0.266-0.188 0.297-0.125 0.188-0.156 0.219-0.188 0.25h-0.031l-0.031 0.063-0.172 0.188-0.25 0.25-0.172 0.141-0.25 0.172-0.281 0.156-0.313 0.125-0.312 0.094-0.25 0.047-0.109 0.016h-0.516l-0.313-0.062-0.25-0.094-0.25-0.125-0.25-0.188-0.313-0.312-0.188-0.266-0.141-0.234-0.109-0.188-0.172-0.359-0.219-0.453-0.172-0.297-0.188-0.266-0.172-0.188-0.188-0.156-0.234-0.141-0.234-0.109-0.281-0.094-0.234-0.047-0.141-0.016h-0.344l-0.266 0.031-0.297 0.078-0.266 0.109-0.297 0.156-0.188 0.125-0.266 0.203-0.203 0.188-0.109 0.109-0.141 0.172-0.156 0.203-0.172 0.281-0.172 0.344-0.172 0.422-0.141 0.453-0.094 0.406-0.062 0.359-0.031 0.063h-0.672l0.016-0.188 0.063-0.375 0.109-0.469 0.125-0.406 0.156-0.422 0.203-0.438 0.203-0.344 0.188-0.25 0.203-0.25 0.172-0.188 0.203-0.188 0.156-0.125 0.234-0.172 0.313-0.188 0.266-0.141 0.313-0.125 0.344-0.094 0.313-0.047z"></path>
<path fill="#ff5b02" d="M18.844 20.25h0.438l0.25 0.047 0.297 0.125 0.25 0.156 0.234 0.219 0.125 0.172 0.125 0.219 0.094 0.234 0.063 0.313v0.281l-0.063 0.344-0.094 0.25-0.156 0.25-0.125 0.156-0.125 0.125-0.25 0.172-0.266 0.125-0.203 0.063-0.312 0.047-0.281-0.016-0.266-0.063-0.234-0.094-0.172-0.094-0.203-0.156-0.188-0.188-0.156-0.234-0.109-0.234-0.078-0.281-0.016-0.109v-0.375l0.047-0.25 0.094-0.25 0.109-0.203 0.156-0.203 0.188-0.188 0.203-0.141 0.25-0.125 0.203-0.063 0.172-0.031z"></path>
<path fill="#ff5b02" d="M12.703 20.25h0.453l0.234 0.047 0.234 0.094 0.203 0.109 0.203 0.156 0.172 0.172 0.141 0.203 0.125 0.25 0.078 0.25 0.031 0.188v0.297l-0.031 0.234-0.078 0.25-0.125 0.25-0.156 0.219-0.203 0.203-0.219 0.141-0.219 0.109-0.25 0.078-0.313 0.047-0.266-0.016-0.219-0.047-0.234-0.078-0.25-0.141-0.203-0.156-0.125-0.125-0.156-0.219-0.141-0.266-0.078-0.266-0.031-0.188v-0.313l0.047-0.25 0.078-0.234 0.109-0.219 0.141-0.188 0.141-0.156 0.125-0.109 0.219-0.141 0.234-0.109 0.234-0.063 0.094-0.016z"></path>
<path fill="#ff5b02" d="M15.422 7.844h1.156l0.25 0.047 0.188 0.078 0.172 0.094 0.188 0.141v0.031l0.063 0.031 0.125 0.156 0.125 0.203 0.094 0.25 0.031 0.172 0.016 0.281-0.016 0.031-2.063-0.016h-1.547l-0.031-0.016v-0.141l0.031-0.25 0.078-0.25 0.141-0.25 0.125-0.156 0.109-0.109 0.219-0.156 0.25-0.109 0.172-0.047 0.125-0.016z"></path>
<path fill="#ff5b02" d="M23.391 18.75h0.219l0.203 0.063 0.141 0.109 0.125 0.141 0.078 0.172 0.016 0.063v0.25l-0.047 0.156-0.109 0.172-0.125 0.109-0.156 0.078-0.219 0.047-0.219-0.031-0.188-0.094-0.141-0.125-0.109-0.188-0.047-0.172v-0.156l0.062-0.203 0.094-0.141 0.063-0.078 0.156-0.109 0.203-0.063z"></path>
<path fill="#ff5b02" d="M25.484 16.672h0.156l0.156 0.031 0.156 0.078 0.156 0.141 0.078 0.125 0.063 0.203v0.203l-0.063 0.203-0.125 0.172-0.141 0.109-0.156 0.063-0.078 0.016h-0.25l-0.172-0.063-0.141-0.094-0.109-0.125-0.094-0.188-0.016-0.063v-0.281l0.063-0.172 0.125-0.172 0.125-0.094 0.125-0.063 0.141-0.031z"></path>
<path fill="#ff5b02" d="M21.344 16.672h0.156l0.188 0.047 0.156 0.094 0.125 0.125 0.094 0.172 0.031 0.109v0.25l-0.047 0.156-0.094 0.156-0.141 0.125-0.156 0.078-0.109 0.031h-0.266l-0.172-0.063-0.172-0.125-0.094-0.125-0.063-0.125-0.031-0.094v-0.266l0.063-0.172 0.094-0.141 0.109-0.109 0.188-0.094 0.141-0.031z"></path>
<path fill="#ff5b02" d="M23.406 14.594h0.203l0.156 0.047 0.156 0.094 0.109 0.109 0.094 0.156 0.047 0.156v0.234l-0.047 0.156-0.109 0.172-0.125 0.109-0.156 0.078-0.125 0.031h-0.234l-0.156-0.047-0.172-0.109-0.109-0.125-0.078-0.156-0.031-0.094-0.016-0.172 0.031-0.172 0.078-0.156 0.094-0.125 0.156-0.109 0.141-0.062 0.094-0.016z"></path>
</svg>
