<!-- Generated by IcoMoon.io -->
<svg version="1.1" xmlns="http://www.w3.org/2000/svg" width="32" height="32" viewBox="0 0 32 32">
<path fill="#ff5b02" d="M5.75 2.953h0.297l0.203 0.063 0.156 0.094 0.156 0.141 0.141 0.156 0.156 0.203 0.438 0.562 0.203 0.25 0.141 0.188 0.188 0.234 0.156 0.203 0.172 0.219 0.219 0.281 0.172 0.219 0.188 0.234 0.313 0.406 0.188 0.234 0.156 0.203 1.031 1.312 0.219 0.281 0.203 0.25 0.172 0.188 0.156 0.141 0.234 0.156 0.25 0.125 0.25 0.094 0.281 0.063 0.109 0.016 0.313 0.016 0.266-0.016 0.266-0.047 0.219-0.062 0.234-0.094 0.25-0.141 0.188-0.141 0.156-0.141 0.125-0.125 0.141-0.172 0.219-0.281 0.188-0.234 0.156-0.203 0.172-0.219 0.219-0.281 0.188-0.234 0.156-0.203 0.344-0.438 0.188-0.234 0.141-0.188 0.172-0.219 0.188-0.234 0.109-0.141 0.156-0.203 0.172-0.219 0.188-0.234 0.141-0.188 0.172-0.219 0.188-0.234 0.328-0.422 0.344-0.438 0.141-0.141 0.203-0.125 0.203-0.063h0.312l0.188 0.063 0.172 0.109 0.141 0.141 0.109 0.188 0.063 0.203v0.266l-0.063 0.203-0.109 0.219-0.156 0.234-0.25 0.391-0.156 0.234-0.141 0.219-0.172 0.266-0.25 0.391-0.156 0.234-0.109 0.172-0.234 0.359-0.172 0.266-0.234 0.359-0.109 0.172-0.125 0.188-0.25 0.391-0.266 0.406-0.109 0.172-0.281 0.422-0.172 0.281-0.219 0.328-0.141 0.219-0.234 0.359-0.109 0.172-0.016 0.062 0.188 0.047 1.312 0.406 0.547 0.172 0.234 0.094 0.234 0.141 0.266 0.188 0.234 0.156 0.266 0.141 0.141 0.047 0.094 0.016h0.453l0.312-0.063 0.234-0.078 0.25-0.125 0.203-0.141 0.203-0.172 0.125-0.125 0.141-0.172 0.203-0.234 0.141-0.172 0.172-0.203 0.281-0.344 0.188-0.219 0.141-0.172 0.172-0.203 0.125-0.156 0.188-0.219 0.125-0.156 0.188-0.219 0.125-0.156 0.172-0.203 0.141-0.172 0.172-0.203 0.141-0.172 0.172-0.203 0.141-0.172 0.219-0.266 0.172-0.188 0.109-0.109 0.156-0.094 0.203-0.063h0.281l0.188 0.063 0.156 0.109 0.125 0.125 0.094 0.156 0.063 0.219v0.203l-0.063 0.219-0.156 0.25-0.547 0.781-0.203 0.297-0.156 0.219-0.172 0.25-0.188 0.266-0.141 0.203-0.219 0.313-0.141 0.203-0.188 0.266-0.219 0.313-0.203 0.297-0.156 0.219-0.25 0.359-0.219 0.313-0.141 0.203-0.219 0.313-0.188 0.266-0.172 0.281-0.109 0.219-0.109 0.297-0.078 0.328-0.031 0.344v2.172l0.031 0.328 0.078 0.328v0.094l-0.156-0.016-0.219-0.047-0.125-0.016h-0.406l-0.297 0.047-0.313 0.094-0.297 0.125-0.172 0.109-0.172 0.141-0.109 0.125-0.109 0.156-0.125 0.266-0.047 0.188-0.016 0.109v0.234l0.047 0.219 0.078 0.203 0.125 0.172 0.109 0.109 0.234 0.156 2.656 1.328 0.156 0.094 0.016 0.063-0.016 0.016-0.766 0.016 0.031 0.438 0.281 4.89 0.047 0.797v0.484l-0.047 0.203-0.063 0.156-0.109 0.172-0.078 0.094-0.156 0.125-0.172 0.078-0.125 0.031h-0.125l-0.25-0.063-0.172-0.109-0.141-0.125-0.109-0.156-0.094-0.188-0.063-0.25-0.094-0.813-0.297-2.812-0.297-2.781-0.016-0.188-0.719 0.016-0.031 0.172-0.141 1.344-0.109 1.031-0.094 0.922-0.313 2.969-0.047 0.281-0.078 0.203-0.109 0.187-0.109 0.125-0.172 0.125-0.188 0.078-0.125 0.031h-0.156l-0.203-0.063-0.156-0.109-0.172-0.172-0.125-0.219-0.062-0.187-0.031-0.219v-0.187l0.078-1.391 0.156-2.672 0.109-1.938 0.016-0.328h-0.672l-0.047-0.047 0.156-0.813 0.484-2.438 0.094-0.422 0.141-0.563 0.031-0.156 0.016-0.25v-1.844l-0.016-0.625-0.031-0.281-0.063-0.266-0.109-0.25-0.125-0.172-0.156-0.141-0.797-0.563-0.281-0.203-0.531-0.375-0.109-0.078h-0.031l-0.047 0.156-0.047 0.281-0.016 0.297v3.469l0.031 0.75 0.328 6.141 0.234 4.391 0.016 0.266v0.406l-0.063 0.234-0.109 0.203-0.172 0.187-0.172 0.109-0.188 0.062-0.078 0.016h-0.203l-0.25-0.063-0.188-0.094-0.156-0.125-0.109-0.125-0.094-0.156-0.078-0.25-0.094-0.703-0.531-4.266-0.328-2.625-0.141-1.141-0.062-0.391-0.031-0.016-0.047 0.297-0.234 1.922-0.281 2.313-0.125 1.031-0.188 1.531-0.156 1.297-0.094 0.719-0.063 0.234-0.109 0.203-0.141 0.156-0.125 0.109-0.203 0.094-0.188 0.047h-0.234l-0.172-0.047-0.25-0.125-0.188-0.187-0.094-0.156-0.078-0.187-0.031-0.187 0.016-0.422 0.141-2.656 0.109-2.094 0.172-3.297 0.125-2.422 0.031-0.531 0.016-0.422v-3.516l-0.031-0.406-0.078-0.359-0.094-0.281-0.125-0.281-0.188-0.328-0.234-0.359-0.406-0.625-0.172-0.266-0.234-0.359-0.25-0.391-0.281-0.422-0.156-0.25-0.266-0.406-0.172-0.266-0.203-0.313-0.172-0.266-0.234-0.359-0.344-0.531-0.234-0.359-0.25-0.391-0.266-0.406-0.516-0.797-0.141-0.25-0.047-0.141-0.016-0.078v-0.219l0.063-0.234 0.094-0.156 0.141-0.156 0.156-0.109 0.172-0.063 0.063-0.016z"></path>
<path fill="#ff5b02" d="M29.219 14.984h0.375l0.187 0.063 0.125 0.094 0.11 0.109 0.078 0.156 0.047 0.203 0.031 0.297v0.25l-0.031 0.328-0.047 0.297-0.188 0.563-0.25 0.672-0.219 0.563-0.234 0.609-0.156 0.422-0.234 0.656-0.172 0.531-0.172 0.641-0.109 0.516-0.063 0.391-0.047 0.422-0.016 0.313v0.297l0.031 0.578 0.313 4 0.031 0.359v0.297l-0.078 0.156-0.125 0.125-0.125 0.078-0.203 0.062-0.078 0.016h-0.234l-0.219-0.047-0.219-0.109-0.141-0.125-0.078-0.125-0.078-0.25-0.281-1.094-0.234-0.937-0.297-1.156-0.078-0.266-0.031 0.016-0.281 1.109-0.281 1.141-0.281 1.125-0.078 0.281-0.078 0.141-0.078 0.078-0.109 0.094-0.172 0.078-0.188 0.047h-0.25l-0.219-0.047-0.188-0.094-0.156-0.141-0.063-0.125-0.016-0.047v-0.266l0.156-2.015 0.234-3.047 0.078-1v-0.297l-0.078-0.328-0.109-0.328-0.109-0.203-0.125-0.109-3.375-1.688-0.109-0.094-0.047-0.109 0.016-0.156 0.063-0.125 0.078-0.094 0.141-0.094 0.25-0.109 0.266-0.063 0.109-0.016h0.172l0.25 0.047 0.688 0.188 0.531 0.141 0.641 0.172 0.563 0.156 0.531 0.141 0.297 0.094 0.266 0.109 0.344 0.156 0.297 0.109 0.219 0.047 0.281 0.016 0.25-0.031 0.25-0.078 0.266-0.141 0.172-0.141 0.156-0.141 0.125-0.141 0.203-0.281 0.156-0.266 0.172-0.344 0.172-0.422 0.141-0.391 0.156-0.516 0.156-0.609 0.25-1.031 0.047-0.125 0.062-0.078 0.172-0.078 0.125-0.031z"></path>
<path fill="#ff5b02" d="M2.328 14.984h0.219l0.172 0.047 0.109 0.063 0.078 0.094 0.063 0.203 0.266 1.109 0.156 0.578 0.203 0.625 0.172 0.438 0.25 0.516 0.188 0.297 0.141 0.188 0.125 0.141v0.031h0.031l0.063 0.062v0.031l0.063 0.031 0.156 0.125 0.219 0.125 0.203 0.078 0.188 0.047 0.172 0.016 0.375-0.016 0.313-0.063 0.281-0.094 0.25-0.125 0.25-0.156 0.172-0.141 0.203-0.188 0.141-0.141 0.313-0.391 0.187-0.266 0.156-0.219 0.125-0.188 0.188-0.266 0.188-0.25 0.078-0.078 0.141-0.047 0.25 0.031 0.297 0.109 0.266 0.141 0.094 0.109 0.031 0.078 0.016 0.203-0.047 0.25-0.094 0.25-0.172 0.281-0.203 0.313-0.234 0.359-0.141 0.219-0.406 0.625-0.25 0.391-0.156 0.234-0.188 0.297-0.156 0.297-0.125 0.375-0.063 0.313v0.516l0.391 5.063 0.063 0.781v0.109l-0.047 0.156-0.109 0.141-0.141 0.094-0.203 0.078-0.141 0.031h-0.266l-0.234-0.063-0.188-0.109-0.109-0.109-0.094-0.187-0.094-0.344-0.359-1.438-0.281-1.141-0.172-0.688-0.031-0.031-0.047 0.125-0.219 0.844-0.313 1.234-0.219 0.844-0.141 0.547-0.062 0.156-0.109 0.141-0.141 0.094-0.188 0.078-0.203 0.047h-0.234l-0.203-0.047-0.156-0.078-0.156-0.141-0.078-0.156-0.016-0.047v-0.187l0.141-1.766 0.094-1.234 0.125-1.594 0.016-0.234v-0.906l-0.047-0.531-0.094-0.594-0.141-0.641-0.156-0.578-0.203-0.641-0.297-0.875-0.516-1.438-0.109-0.406-0.094-0.563-0.031-0.328v-0.359l0.047-0.297 0.063-0.141 0.063-0.094 0.125-0.109 0.141-0.063 0.063-0.016z"></path>
<path fill="#ff5b02" d="M12.391 5.406h0.359l0.266 0.047 0.266 0.094 0.25 0.141 0.219 0.172 0.156 0.156 0.156 0.219 0.125 0.234 0.094 0.281 0.031 0.156 0.016 0.156v0.188l-0.031 0.266-0.078 0.281-0.125 0.25-0.109 0.172-0.141 0.172-0.188 0.172-0.219 0.141-0.234 0.109-0.25 0.078-0.141 0.031-0.172 0.016h-0.188l-0.234-0.031-0.234-0.062-0.219-0.094-0.203-0.125-0.172-0.125v-0.031l-0.062-0.031-0.156-0.172-0.156-0.234-0.109-0.234-0.078-0.25-0.031-0.219v-0.313l0.047-0.266 0.078-0.25 0.156-0.297 0.141-0.188 0.219-0.219 0.25-0.172 0.266-0.125 0.297-0.078 0.141-0.016z"></path>
<path fill="#ff5b02" d="M19.438 8.172h0.359l0.313 0.063 0.281 0.125 0.234 0.156 0.188 0.172 0.156 0.203 0.125 0.219 0.109 0.328 0.031 0.172v0.359l-0.063 0.281-0.062 0.188-0.156 0.281-0.188 0.219-0.156 0.141-0.203 0.125-0.188 0.094-0.25 0.078-0.172 0.031h-0.375l-0.234-0.047-0.25-0.094-0.203-0.109-0.203-0.156-0.156-0.156-0.156-0.219-0.125-0.25-0.078-0.266-0.031-0.281 0.016-0.25 0.063-0.281 0.094-0.234 0.125-0.203 0.188-0.234 0.172-0.141 0.219-0.141 0.219-0.094 0.234-0.063 0.125-0.016z"></path>
<path fill="#ff5b02" d="M25.781 16.375h0.234l0.219 0.031 0.234 0.078 0.25 0.141 0.203 0.172 0.156 0.188 0.109 0.172 0.094 0.25 0.047 0.203 0.016 0.219-0.031 0.281-0.078 0.25-0.094 0.188-0.156 0.219-0.125 0.125-0.172 0.125-0.234 0.125-0.25 0.078-0.188 0.031h-0.25l-0.25-0.047-0.203-0.078-0.203-0.109-0.156-0.125-0.172-0.172-0.109-0.156-0.125-0.25-0.063-0.219-0.016-0.094v-0.375l0.063-0.25 0.078-0.203 0.125-0.203 0.172-0.203 0.219-0.172 0.234-0.125 0.219-0.063 0.203-0.031z"></path>
<path fill="#ff5b02" d="M5.625 16.391h0.422l0.25 0.063 0.172 0.078 0.188 0.109 0.172 0.141 0.141 0.156 0.141 0.219 0.078 0.172 0.063 0.25 0.016 0.109v0.234l-0.031 0.234-0.063 0.188-0.125 0.25-0.172 0.219-0.156 0.141-0.219 0.141-0.219 0.094-0.188 0.047-0.109 0.016h-0.328l-0.234-0.047-0.203-0.078-0.234-0.141-0.188-0.172-0.125-0.141-0.125-0.203-0.078-0.188-0.047-0.141-0.031-0.203v-0.234l0.047-0.25 0.094-0.266 0.125-0.203 0.141-0.172 0.156-0.141 0.219-0.141 0.234-0.094 0.219-0.047z"></path>
</svg>
