<!-- Generated by IcoMoon.io -->
<svg version="1.1" xmlns="http://www.w3.org/2000/svg" width="32" height="32" viewBox="0 0 32 32">
<path fill="#ff5b02" d="M15.625 3.984h0.469l0.5 0.031 0.547 0.063 0.547 0.094 0.453 0.109 0.406 0.109 0.453 0.156 0.438 0.172 0.438 0.203 0.344 0.172 0.375 0.219 0.328 0.203 0.266 0.188 0.219 0.156 0.25 0.203 0.172 0.141 0.156 0.141 0.125 0.109 0.234 0.219 0.188 0.188 0.109 0.125 0.188 0.203 0.141 0.172 0.156 0.188 0.219 0.297 0.156 0.234 0.188 0.328 0.172 0.344 0.156 0.391 0.125 0.375 0.109 0.422 0.078 0.453 0.047 0.469v0.719l0.109-0.016h0.406l0.438 0.031 0.422 0.062 0.391 0.094 0.266 0.078 0.328 0.125 0.375 0.172 0.266 0.141 0.297 0.188 0.297 0.219 0.203 0.172 0.125 0.109 0.359 0.359 0.141 0.172 0.219 0.281 0.172 0.266 0.141 0.234 0.125 0.25 0.141 0.313 0.141 0.391 0.109 0.422 0.062 0.313 0.047 0.391 0.016 0.312v0.266l-0.016 0.391-0.031 0.297-0.062 0.375-0.11 0.422-0.141 0.406-0.172 0.375-0.172 0.328-0.141 0.219-0.187 0.266-0.219 0.266-0.219 0.234-0.156 0.156-0.125 0.109-0.187 0.156-0.172 0.125-0.281 0.188-0.328 0.188-0.391 0.188-0.438 0.156-0.406 0.109-0.328 0.063-0.391 0.047-0.203 0.016h-0.203v-0.25l0.016-0.203 0.016-0.469v-0.219l-0.016-0.422-0.047-0.516-0.063-0.438-0.094-0.484-0.125-0.484-0.125-0.391-0.141-0.406-0.188-0.438-0.25-0.516-0.203-0.359-0.203-0.328-0.203-0.297-0.219-0.297-0.281-0.344-0.141-0.156-0.109-0.125-0.25-0.25v-0.031l-0.063-0.031-0.219-0.219-0.172-0.141-0.156-0.141-0.266-0.203-0.297-0.219-0.234-0.156-0.328-0.203-0.281-0.156-0.359-0.188-0.406-0.188-0.438-0.172-0.563-0.188-0.469-0.125-0.531-0.109-0.578-0.078-0.406-0.031-0.359-0.016h-0.469l-0.531 0.031-0.422 0.047-0.469 0.078-0.563 0.125-0.625 0.188-0.5 0.188-0.422 0.188-0.266 0.125-0.344 0.188-0.266 0.156-0.266 0.172-0.25 0.172-0.25 0.188-0.203 0.156-0.219 0.188-0.234 0.203-0.484 0.484-0.109 0.125-0.203 0.234-0.172 0.219-0.203 0.266-0.234 0.344-0.125 0.203-0.188 0.313-0.234 0.453-0.172 0.359-0.188 0.484-0.188 0.563-0.125 0.469-0.109 0.531-0.078 0.547-0.047 0.656v0.656l0.031 0.516v0.156l-0.078 0.016-0.469-0.047-0.422-0.078-0.391-0.109-0.344-0.125-0.281-0.125-0.344-0.172-0.328-0.203-0.266-0.188-0.25-0.203-0.188-0.172-0.125-0.109-0.156-0.156-0.109-0.125-0.141-0.156-0.188-0.25-0.172-0.25-0.188-0.313-0.188-0.375-0.156-0.406-0.109-0.375-0.078-0.406-0.031-0.25-0.016-0.219v-0.313l0.031-0.359 0.063-0.375 0.109-0.406 0.156-0.438 0.141-0.313 0.125-0.25 0.172-0.313 0.125-0.188 0.172-0.25 0.172-0.219 0.188-0.219 0.141-0.156 0.281-0.281 0.172-0.141 0.203-0.172 0.219-0.156 0.234-0.156 0.313-0.188 0.359-0.188 0.453-0.188 0.375-0.125 0.438-0.109 0.438-0.078 0.25-0.031 0.25-0.016h0.859l-0.047-0.563v-0.703l0.063-0.563 0.094-0.469 0.109-0.406 0.141-0.406 0.156-0.359 0.125-0.25 0.141-0.266 0.203-0.313 0.188-0.25 0.141-0.172 0.125-0.141 0.109-0.141h0.031l0.031-0.063 0.391-0.391 0.125-0.109 0.219-0.188 0.234-0.188 0.281-0.203 0.281-0.188 0.328-0.203 0.438-0.234 0.406-0.188 0.406-0.156 0.422-0.141 0.484-0.125 0.563-0.109 0.5-0.063 0.5-0.031z"></path>
<path fill="#ff5b02" d="M15.734 13.984h0.469l0.484 0.031 0.469 0.063 0.406 0.078 0.406 0.109 0.516 0.172 0.375 0.156 0.453 0.219 0.297 0.172 0.344 0.219 0.297 0.219 0.25 0.203 0.219 0.188 0.156 0.156 0.125 0.109 0.031 0.062h0.031l0.109 0.125 0.156 0.172 0.172 0.219 0.219 0.281 0.234 0.359 0.141 0.234 0.188 0.344 0.172 0.375 0.156 0.406 0.141 0.438 0.125 0.516 0.078 0.484 0.047 0.5v0.828l-0.031 0.375-0.063 0.422-0.062 0.313-0.109 0.422-0.188 0.563-0.203 0.469-0.188 0.375-0.125 0.219-0.219 0.344-0.156 0.219-0.141 0.188-0.172 0.203-0.141 0.172-0.531 0.531-0.125 0.109-0.219 0.172-0.203 0.156-0.375 0.25-0.344 0.203-0.359 0.187-0.422 0.187-0.391 0.141-0.297 0.094-0.5 0.125-0.453 0.078-0.422 0.047-0.219 0.016h-0.688l-0.547-0.047-0.563-0.094-0.438-0.11-0.453-0.141-0.5-0.203-0.453-0.219-0.281-0.156-0.297-0.187-0.266-0.188-0.203-0.156-0.172-0.141-0.234-0.203-0.141-0.141-0.094-0.078-0.109-0.125-0.125-0.125-0.141-0.172-0.172-0.203-0.219-0.297-0.156-0.234-0.234-0.391-0.219-0.422-0.172-0.406-0.125-0.344-0.141-0.484-0.094-0.422-0.078-0.5-0.047-0.578v-0.469l0.031-0.453 0.063-0.469 0.109-0.531 0.141-0.484 0.156-0.438 0.188-0.422 0.172-0.344 0.203-0.344 0.156-0.234 0.188-0.266 0.125-0.156 0.219-0.266 0.047-0.063h0.031l0.031-0.063 0.422-0.422 0.172-0.141 0.219-0.188 0.297-0.219 0.234-0.156 0.328-0.203 0.359-0.188 0.25-0.125 0.406-0.172 0.531-0.172 0.438-0.109 0.438-0.078 0.359-0.047 0.438-0.031zM13.859 18.016l-0.203 0.047-0.188 0.094-0.172 0.141-0.125 0.156-0.109 0.219-0.047 0.234v0.219l0.063 0.25 0.078 0.156 0.141 0.172 1.266 1.266v0.063l-1.344 1.344-0.094 0.141-0.078 0.203-0.031 0.172v0.219l0.063 0.25 0.094 0.188 0.109 0.141h0.031v0.031l0.172 0.125 0.156 0.078 0.172 0.047 0.109 0.016h0.156l0.234-0.047 0.25-0.125 0.156-0.125 1.266-1.266 0.063 0.031 1.297 1.297 0.219 0.141 0.172 0.063 0.203 0.031 0.234-0.016 0.203-0.063 0.156-0.078 0.156-0.125 0.125-0.141 0.125-0.25 0.047-0.25-0.016-0.266-0.063-0.203-0.094-0.172-0.188-0.219-0.328-0.328h-0.031l-0.031-0.062h-0.031l-0.031-0.063h-0.031l-0.031-0.063h-0.031l-0.031-0.062h-0.031l-0.031-0.063h-0.031l-0.031-0.063h-0.031l-0.031-0.063-0.125-0.125h-0.031l-0.031-0.063h-0.031l-0.031-0.063h-0.031v-0.031h-0.031v-0.031h-0.031v-0.031l-0.078-0.063 0.016-0.078 1.297-1.297 0.109-0.156 0.062-0.125 0.047-0.172 0.016-0.125v-0.156l-0.031-0.188-0.078-0.203-0.125-0.188-0.172-0.156-0.25-0.125-0.188-0.047h-0.297l-0.203 0.047-0.172 0.094-0.141 0.109-1.266 1.266-0.063 0.047-0.047-0.016-0.031-0.063-0.125-0.125h-0.031l-0.031-0.062-1-1-0.156-0.125-0.156-0.094-0.188-0.063-0.094-0.016h-0.281z"></path>
</svg>
