<!-- Generated by IcoMoon.io -->
<svg version="1.1" xmlns="http://www.w3.org/2000/svg" width="32" height="32" viewBox="0 0 32 32">
<path fill="#ff5b02" d="M26.75 12.203h0.219l0.172 0.047 0.187 0.109 0.156 0.156 0.188 0.25 0.219 0.297 0.25 0.328 0.219 0.297 0.25 0.328 0.219 0.297 0.25 0.328 0.219 0.297 0.25 0.328 0.219 0.297 0.25 0.328 0.219 0.297 0.25 0.328 0.219 0.297 0.25 0.328 0.219 0.297 0.25 0.328 0.219 0.297 0.187 0.25 0.11 0.172 0.062 0.172v0.281l-0.078 0.188-0.125 0.172-0.125 0.109-0.156 0.078-0.219 0.047h-1.484v7.25l-0.016 2.344-0.062 0.203-0.109 0.156-0.125 0.125-0.187 0.094-0.109 0.031-0.219 0.015h-4.312l-0.234-0.031-0.188-0.094-0.156-0.141-0.109-0.172-0.063-0.203-0.016-0.266v-8.297l0.016-1.016h-1.531l-0.188-0.047-0.172-0.094-0.141-0.141-0.094-0.172-0.063-0.188v-0.25l0.063-0.188 0.109-0.172 0.188-0.25 0.25-0.328 0.562-0.75 0.25-0.328 0.75-1 0.25-0.328 0.219-0.297 0.156-0.203 0.516-0.688 0.25-0.328 0.219-0.297 0.25-0.328 0.219-0.297 0.25-0.328 0.141-0.156 0.125-0.094 0.156-0.063 0.094-0.016z"></path>
<path fill="#ff5b02" d="M15.922 14.391l0.25 0.016 0.156 0.063 0.141 0.094 0.125 0.125 4.406 5.875 0.109 0.219 0.016 0.078v0.219l-0.063 0.203-0.094 0.156-0.141 0.141-0.219 0.109-0.141 0.031h-1.531v7.031l-0.016 0.391-0.062 0.187-0.109 0.156-0.125 0.125-0.188 0.094-0.109 0.031-0.219 0.015h-4.313l-0.219-0.031-0.219-0.109-0.141-0.141-0.094-0.156-0.047-0.141-0.016-0.125v-7.328h-1.578l-0.219-0.078-0.172-0.125-0.125-0.156-0.063-0.125-0.031-0.109v-0.281l0.047-0.156 0.109-0.188 0.156-0.203 0.219-0.297 0.156-0.203 0.219-0.297 0.156-0.203 0.219-0.297 0.25-0.328 0.219-0.297 0.25-0.328 0.219-0.297 0.25-0.328 0.219-0.297 1.312-1.75 0.219-0.297 0.312-0.406 0.078-0.078 0.109-0.094 0.172-0.078 0.156-0.031z"></path>
<path fill="#ff5b02" d="M4.984 16.594h0.297l0.172 0.062 0.172 0.109 0.109 0.109 0.234 0.313 0.219 0.297 0.25 0.328 0.156 0.219 0.156 0.203 0.219 0.297 0.25 0.328 0.219 0.297 0.375 0.5 0.219 0.297 0.25 0.328 0.156 0.219 0.156 0.203 0.219 0.297 0.25 0.328 0.219 0.297 0.188 0.25 0.219 0.297 0.25 0.328 0.219 0.297 0.078 0.188 0.016 0.063v0.234l-0.063 0.203-0.109 0.172-0.156 0.141-0.125 0.063-0.156 0.047-0.156 0.016h-1.422v4.969l-0.016 0.266-0.078 0.203-0.125 0.172-0.172 0.125-0.156 0.062-0.063 0.016-0.219 0.015h-4.297l-0.219-0.031-0.219-0.109-0.109-0.094-0.109-0.156-0.063-0.141-0.031-0.203v-5.094h-1.484l-0.188-0.031-0.219-0.109-0.156-0.156-0.094-0.172-0.047-0.141v-0.281l0.078-0.203 0.109-0.172 0.25-0.328 0.219-0.297 0.219-0.281 0.219-0.297 0.25-0.328 0.75-1 0.25-0.328 0.219-0.297 0.156-0.203 0.516-0.688 0.25-0.328 0.219-0.297 0.25-0.328 0.219-0.297 0.156-0.203 0.219-0.297 0.141-0.141 0.188-0.094 0.109-0.031z"></path>
<path fill="#ff5b02" d="M5 7.5h0.234l0.188 0.047 0.172 0.109 0.078 0.078 0.094 0.109 0.156 0.297 0.203 0.438 0.281 0.594 0.25 0.531 0.094 0.188 0.016 0.016 1.922 0.25 0.297 0.047 0.172 0.063 0.141 0.094 0.078 0.062 0.141 0.203 0.047 0.125 0.016 0.094v0.156l-0.031 0.156-0.094 0.188-0.109 0.141-0.234 0.234-0.125 0.109-0.109 0.109-0.125 0.109-0.141 0.141-0.125 0.109-0.156 0.156-0.125 0.109-0.156 0.156-0.125 0.109-0.156 0.141 0.016 0.188 0.375 1.969 0.016 0.109v0.125l-0.062 0.219-0.141 0.219-0.141 0.125-0.188 0.078-0.109 0.031h-0.281l-0.219-0.078-0.359-0.203-1.203-0.672-0.297-0.172-0.094 0.016-0.375 0.203-0.359 0.203-0.344 0.188-0.359 0.203-0.438 0.234-0.203 0.078-0.063 0.016h-0.172l-0.188-0.047-0.156-0.078-0.156-0.141-0.109-0.172-0.063-0.172-0.016-0.188 0.063-0.375 0.344-1.797v-0.109l-0.141-0.141-0.125-0.109-0.531-0.5-0.109-0.109-0.125-0.109-0.172-0.172-0.125-0.109-0.266-0.25-0.094-0.125-0.094-0.188-0.031-0.125v-0.188l0.047-0.188 0.109-0.172 0.094-0.109 0.172-0.109 0.172-0.063 0.563-0.078 1.703-0.219 0.031-0.094 0.234-0.5 0.141-0.313 0.234-0.5 0.141-0.313 0.141-0.297 0.109-0.141 0.078-0.078 0.078-0.062 0.156-0.078 0.125-0.031z"></path>
<path fill="#ff5b02" d="M26.719 2.234h0.281l0.187 0.063 0.172 0.125 0.125 0.141 0.188 0.359 0.219 0.469 0.266 0.563 0.25 0.531 0.063 0.141 0.141 0.031 1.828 0.234 0.281 0.047 0.156 0.047 0.203 0.141 0.125 0.156 0.078 0.172 0.031 0.156v0.141l-0.047 0.188-0.078 0.156-0.172 0.203-0.156 0.141-0.5 0.469-0.187 0.172-0.469 0.438-0.187 0.172h-0.031l0.016 0.141 0.141 0.766 0.203 1.062 0.047 0.25v0.234l-0.047 0.156-0.078 0.156-0.094 0.109-0.156 0.109-0.172 0.078-0.141 0.031h-0.125l-0.187-0.047-0.25-0.125-1.578-0.875-0.156-0.094-0.109 0.016-0.359 0.203-0.438 0.234-0.25 0.141-0.422 0.234-0.375 0.203-0.188 0.078-0.078 0.016h-0.219l-0.188-0.047-0.172-0.094-0.125-0.125-0.078-0.125-0.062-0.172-0.016-0.063v-0.203l0.109-0.594 0.219-1.156 0.078-0.391v-0.094l-0.234-0.219-0.406-0.375-0.234-0.219-0.5-0.469-0.156-0.141-0.125-0.125-0.109-0.188-0.047-0.141-0.016-0.188 0.047-0.219 0.094-0.188 0.141-0.156 0.156-0.094 0.141-0.047 0.438-0.063 0.828-0.109 1-0.125 0.031-0.078 0.203-0.422 0.203-0.438 0.281-0.594 0.234-0.5 0.125-0.172 0.141-0.109 0.125-0.063 0.125-0.031z"></path>
<path fill="#ff5b02" d="M15.844 5.047h0.281l0.203 0.063 0.156 0.109 0.125 0.141 0.125 0.234 0.172 0.375 0.109 0.25 0.125 0.25 0.203 0.438 0.109 0.25 0.109 0.219 0.031 0.078 0.141 0.031 1.688 0.203 0.438 0.063 0.172 0.063 0.141 0.094 0.078 0.063 0.141 0.203 0.047 0.141v0.281l-0.063 0.203-0.094 0.156-0.188 0.203-0.156 0.141-0.234 0.219-0.406 0.375-0.266 0.25-0.203 0.188-0.219 0.203 0.078 0.453 0.328 1.719v0.266l-0.047 0.156-0.078 0.141-0.141 0.156-0.125 0.078-0.172 0.063-0.078 0.016h-0.219l-0.203-0.063-0.469-0.25-0.281-0.156-0.813-0.453-0.344-0.188-0.016-0.016-0.109 0.016-0.359 0.203-1.484 0.828-0.172 0.063-0.141 0.031-0.203-0.016-0.172-0.063-0.156-0.094-0.125-0.125-0.109-0.188-0.047-0.172v-0.172l0.078-0.438 0.313-1.641 0.016-0.062v-0.109l-0.234-0.219-0.172-0.172-0.125-0.109-0.125-0.125-0.125-0.109-0.266-0.25-0.125-0.125-0.125-0.109-0.172-0.172-0.125-0.109-0.125-0.156-0.078-0.172-0.016-0.062v-0.266l0.063-0.188 0.094-0.156 0.125-0.125 0.188-0.109 0.188-0.047 0.75-0.094 1.313-0.156 0.109-0.031 0.109-0.219 0.203-0.438 0.234-0.5 0.203-0.438 0.219-0.453 0.109-0.141 0.125-0.109 0.156-0.078 0.109-0.031z"></path>
</svg>
