<!-- Generated by IcoMoon.io -->
<svg version="1.1" xmlns="http://www.w3.org/2000/svg" width="32" height="32" viewBox="0 0 32 32">
<path fill="#ff5b02" d="M15.625 1.328h0.781l0.625 0.031 0.797 0.078 0.547 0.078 0.375 0.078 0.328 0.109 0.266 0.125 0.25 0.156 0.203 0.156 0.156 0.141 0.141 0.141 0.203 0.266 0.141 0.234 0.125 0.25 0.125 0.375 0.109 0.484 0.109 0.313 0.125 0.25 0.125 0.219 0.172 0.219 0.203 0.219 0.172 0.141 0.203 0.141 0.219 0.125 0.281 0.125 0.328 0.094 0.281 0.047 0.359 0.016 0.313-0.031 0.391-0.094 0.328-0.109 0.359-0.078 0.125-0.016h0.563l0.281 0.047 0.328 0.094 0.297 0.125 0.25 0.141 0.219 0.156 0.219 0.188 0.109 0.109 0.141 0.172 0.172 0.203 0.203 0.266 0.25 0.328 0.203 0.297 0.313 0.469 0.25 0.406 0.203 0.375 0.156 0.297 0.172 0.344 0.25 0.562 0.172 0.422 0.156 0.422 0.094 0.328 0.047 0.312v0.484l-0.047 0.297-0.078 0.297-0.125 0.313-0.125 0.234-0.125 0.188-0.172 0.203-0.109 0.125-0.234 0.219-0.187 0.172-0.187 0.219-0.125 0.188-0.156 0.281-0.094 0.234-0.094 0.312-0.047 0.328v0.484l0.047 0.297 0.094 0.328 0.109 0.266 0.156 0.281 0.187 0.25 0.219 0.234 0.125 0.109 0.234 0.219 0.187 0.219 0.156 0.234 0.172 0.328 0.109 0.297 0.063 0.234 0.047 0.313v0.5l-0.047 0.312-0.094 0.328-0.172 0.469-0.266 0.609-0.219 0.453-0.172 0.344-0.203 0.359-0.172 0.297-0.172 0.281-0.25 0.375-0.141 0.203-0.156 0.219-0.141 0.188-0.203 0.266-0.141 0.172-0.125 0.156-0.187 0.203-0.156 0.156-0.203 0.156-0.234 0.141-0.25 0.125-0.266 0.094-0.313 0.078-0.219 0.031h-0.531l-0.297-0.047-0.375-0.109-0.313-0.094-0.375-0.063h-0.469l-0.313 0.047-0.25 0.062-0.25 0.094-0.25 0.125-0.234 0.156-0.203 0.172h-0.031v0.031l-0.078 0.063-0.109 0.125-0.188 0.234-0.141 0.234-0.141 0.297-0.094 0.281-0.156 0.625-0.094 0.25-0.125 0.25-0.109 0.187-0.141 0.187-0.141 0.156-0.203 0.203-0.203 0.156-0.313 0.187-0.281 0.125-0.391 0.109-0.547 0.094-0.641 0.078-0.547 0.047-0.625 0.031h-0.656l-0.609-0.031-0.672-0.062-0.766-0.109-0.375-0.078-0.281-0.094-0.328-0.156-0.234-0.156-0.156-0.125-0.156-0.141-0.156-0.156-0.203-0.266-0.141-0.234-0.125-0.266-0.109-0.328-0.109-0.485-0.109-0.328-0.125-0.266-0.188-0.297-0.188-0.219-0.172-0.172-0.266-0.203-0.297-0.172-0.297-0.125-0.266-0.078-0.391-0.063h-0.422l-0.375 0.063-0.484 0.141-0.313 0.078-0.406 0.047h-0.156l-0.328-0.031-0.359-0.078-0.328-0.125-0.25-0.125-0.172-0.109-0.188-0.141-0.156-0.141-0.203-0.203-0.172-0.219-0.156-0.188-0.203-0.266-0.219-0.297-0.172-0.25-0.281-0.422-0.203-0.328-0.188-0.328-0.219-0.422-0.219-0.438-0.172-0.391-0.219-0.531-0.156-0.422-0.094-0.359-0.031-0.188-0.016-0.188v-0.219l0.031-0.297 0.078-0.359 0.109-0.297 0.125-0.25 0.141-0.234 0.203-0.25 0.266-0.266 0.125-0.109 0.109-0.094 0.016-0.031h0.031l0.031-0.063 0.125-0.141 0.188-0.281 0.125-0.25 0.109-0.281 0.078-0.328 0.031-0.25v-0.406l-0.047-0.328-0.078-0.297-0.094-0.234-0.125-0.25-0.156-0.25-0.172-0.203-0.234-0.234-0.125-0.109-0.234-0.234-0.203-0.266-0.125-0.203-0.141-0.313-0.094-0.281-0.063-0.297-0.031-0.281v-0.25l0.031-0.297 0.078-0.344 0.109-0.313 0.188-0.469 0.25-0.563 0.141-0.297 0.156-0.297 0.203-0.375 0.172-0.297 0.234-0.375 0.344-0.516 0.203-0.281 0.141-0.188 0.172-0.219 0.203-0.25 0.125-0.156 0.281-0.281 0.297-0.219 0.281-0.156 0.266-0.109 0.328-0.094 0.281-0.047 0.234-0.016h0.172l0.313 0.031 0.391 0.094 0.344 0.109 0.281 0.062 0.328 0.031h0.172l0.313-0.031 0.359-0.078 0.297-0.109 0.25-0.125 0.219-0.141 0.156-0.125 0.156-0.141 0.156-0.156 0.203-0.281 0.156-0.281 0.109-0.266 0.094-0.328 0.094-0.391 0.109-0.328 0.125-0.25 0.109-0.188 0.188-0.25 0.219-0.234 0.047-0.016v-0.031l0.219-0.172 0.234-0.156 0.359-0.172 0.297-0.094 0.391-0.078 0.547-0.078 0.594-0.063 0.469-0.031 0.391-0.016zM15.813 8l-0.547 0.031-0.516 0.063-0.563 0.109-0.469 0.125-0.516 0.172-0.453 0.188-0.516 0.25-0.375 0.219-0.25 0.156-0.313 0.219-0.203 0.156-0.156 0.125-0.219 0.188-0.203 0.188-0.109 0.094v0.031h-0.031v0.031h-0.031v0.031h-0.031l-0.109 0.125-0.125 0.125-0.109 0.125-0.156 0.188-0.172 0.219-0.203 0.281-0.109 0.156-0.219 0.344-0.188 0.344-0.125 0.25-0.141 0.297-0.172 0.438-0.156 0.469-0.125 0.484-0.078 0.359-0.078 0.562-0.031 0.391-0.016 0.359v0.281l0.031 0.531 0.047 0.422 0.078 0.453 0.109 0.469 0.125 0.422 0.125 0.328 0.078 0.156 0.125 0.172 0.172 0.172 0.219 0.141 0.219 0.094 0.203 0.047 0.234 0.016 0.25-0.031 0.203-0.063 0.219-0.109 0.203-0.156 2.359-2.359 0.141-0.203 0.094-0.203 0.063-0.25 0.016-0.25-0.031-0.234-0.078-0.25-0.125-0.234-0.172-0.203-0.203-0.156-0.25-0.125-0.234-0.063-0.125-0.016h-0.234l-0.25 0.047-0.203 0.078-0.203 0.125-0.219 0.188-0.266 0.266-0.031 0.016 0.109-0.594 0.109-0.406 0.141-0.391 0.172-0.391 0.203-0.375 0.125-0.188 0.172-0.25 0.172-0.219 0.016-0.047h0.031l0.109-0.125 0.141-0.156 0.203-0.203 0.125-0.109 0.25-0.203 0.313-0.219 0.312-0.188 0.391-0.203 0.391-0.156 0.328-0.109 0.375-0.094 0.469-0.078 0.359-0.031h0.625l0.469 0.047 0.391 0.078 0.313 0.078 0.375 0.125 0.203 0.047h0.375l0.25-0.063 0.172-0.078 0.188-0.109 0.203-0.188 0.156-0.219 0.094-0.203 0.063-0.234 0.016-0.266-0.031-0.25-0.094-0.281-0.141-0.234-0.172-0.188-0.172-0.125-0.25-0.125-0.25-0.094-0.547-0.156-0.422-0.094-0.609-0.094-0.406-0.031-0.391-0.016h-0.297zM22.125 12.406l-0.25 0.047-0.25 0.109-0.203 0.141-0.25 0.234-0.469 0.469v0.031l-0.063 0.031v0.031l-0.062 0.031-0.188 0.188v0.031l-0.062 0.031v0.031l-0.063 0.031-0.188 0.188v0.031l-0.063 0.031v0.031l-0.063 0.031-0.125 0.125v0.031l-0.063 0.031v0.031l-0.063 0.031v0.031l-0.063 0.031v0.031l-0.062 0.031v0.031l-0.063 0.031-0.375 0.375v0.031l-0.062 0.031-0.141 0.172-0.125 0.203-0.078 0.219-0.047 0.25v0.219l0.063 0.312 0.078 0.188 0.156 0.234 0.188 0.188 0.219 0.141 0.172 0.078 0.266 0.063h0.375l0.25-0.063 0.156-0.063 0.219-0.141 0.188-0.172 0.266-0.266h0.016l-0.016 0.156-0.078 0.422-0.109 0.406-0.156 0.438-0.141 0.313-0.188 0.359-0.219 0.344-0.188 0.25-0.141 0.172-0.188 0.203v0.031l-0.047 0.016-0.109 0.125-0.031 0.016v0.031l-0.062 0.031-0.203 0.188-0.312 0.234-0.281 0.188-0.328 0.188-0.422 0.203-0.375 0.141-0.375 0.109-0.359 0.078-0.422 0.063-0.391 0.031h-0.375l-0.375-0.031-0.422-0.063-0.391-0.094-0.359-0.109-0.266-0.078-0.109-0.016h-0.281l-0.281 0.063-0.25 0.125-0.141 0.094-0.156 0.141-0.172 0.234-0.078 0.172-0.078 0.25-0.016 0.109v0.266l0.047 0.25 0.078 0.203 0.125 0.203 0.094 0.125h0.031v0.031h0.031v0.031l0.188 0.141 0.25 0.125 0.297 0.109 0.422 0.125 0.563 0.125 0.375 0.062 0.688 0.063h0.781l0.563-0.047 0.516-0.078 0.438-0.094 0.5-0.141 0.328-0.109 0.469-0.188 0.344-0.156 0.344-0.188 0.25-0.141 0.344-0.219 0.281-0.203 0.203-0.156 0.172-0.141 0.219-0.188 0.109-0.109 0.125-0.109 0.25-0.25 0.109-0.125 0.156-0.172 0.141-0.172 0.219-0.281 0.172-0.25 0.203-0.313 0.188-0.328 0.188-0.359 0.203-0.453 0.172-0.469 0.156-0.516 0.125-0.563 0.062-0.391 0.047-0.469 0.016-0.234v-0.797l-0.047-0.547-0.078-0.516-0.109-0.484-0.141-0.484-0.125-0.344-0.125-0.234-0.172-0.203-0.156-0.125-0.219-0.125-0.281-0.094-0.125-0.016h-0.281z"></path>
</svg>
