<!-- Generated by IcoMoon.io -->
<svg version="1.1" xmlns="http://www.w3.org/2000/svg" width="32" height="32" viewBox="0 0 32 32">
<path fill="#ff5b02" d="M14.594 13.984h2.812l0.5 0.031 0.391 0.063 0.375 0.094 0.438 0.156 0.344 0.156 0.328 0.188 0.188 0.125 0.234 0.172 0.172 0.141 0.188 0.172 0.266 0.266 0.141 0.172 0.156 0.203 0.188 0.281 0.156 0.266 0.156 0.328 0.141 0.359 0.109 0.375 0.078 0.391 0.047 0.422 0.016 0.469v4.922l-0.016 1.703-0.063 0.203-0.125 0.172-0.141 0.109-0.172 0.063-0.109 0.016h-10.828l-0.203-0.063-0.125-0.094-0.078-0.078-0.094-0.125-0.047-0.109-0.031-0.266v-6.734l0.031-0.438 0.063-0.375 0.094-0.375 0.109-0.328 0.141-0.328 0.125-0.25 0.125-0.219 0.156-0.234 0.141-0.188 0.125-0.156 0.141-0.156 0.047-0.063h0.031l0.031-0.062 0.062-0.063h0.031l0.016-0.047 0.125-0.109 0.266-0.219 0.422-0.281 0.375-0.203 0.359-0.156 0.328-0.109 0.375-0.094 0.391-0.063 0.5-0.031z"></path>
<path fill="#ff5b02" d="M5.156 16.656h2.984l0.344 0.031 0.281 0.047 0.172 0.047 0.016 0.016-0.016 0.141-0.094 0.359-0.078 0.359-0.063 0.5-0.016 0.297v6.922l0.031 0.344 0.063 0.266-0.016 0.016h-6.203l-0.203-0.063-0.172-0.125-0.125-0.172-0.063-0.188-0.016-0.172v-5.375l0.031-0.375 0.078-0.375 0.094-0.312 0.156-0.359 0.125-0.219 0.109-0.172 0.172-0.234h0.031l0.031-0.063 0.219-0.234 0.156-0.141 0.297-0.219 0.297-0.172 0.297-0.141 0.375-0.125 0.266-0.063 0.234-0.031 0.203-0.016z"></path>
<path fill="#ff5b02" d="M23.844 16.656h2.969l0.344 0.031 0.266 0.047 0.328 0.094 0.375 0.156 0.313 0.172 0.266 0.188 0.203 0.172 0.094 0.078 0.109 0.125 0.109 0.109 0.187 0.25 0.141 0.219 0.172 0.328 0.125 0.328 0.078 0.266 0.062 0.359 0.016 0.156 0.016 0.406v3.469l-0.016 1.828-0.062 0.203-0.125 0.172-0.141 0.109-0.172 0.063-0.109 0.016h-6.188l0.047-0.156 0.031-0.141 0.016-0.141 0.016-0.328v-6.516l-0.016-0.469-0.047-0.453-0.109-0.563-0.109-0.391v-0.047l0.219-0.063 0.25-0.047 0.344-0.031z"></path>
<path fill="#ff5b02" d="M15.859 5.984h0.281l0.344 0.031 0.313 0.063 0.266 0.078 0.25 0.094 0.25 0.125 0.25 0.141 0.297 0.219 0.172 0.156 0.031 0.016v0.031l0.062 0.031 0.109 0.125 0.141 0.156 0.219 0.313 0.156 0.281 0.156 0.375 0.094 0.313 0.063 0.328 0.031 0.344v0.266l-0.047 0.438-0.094 0.391-0.094 0.266-0.109 0.25-0.156 0.281-0.172 0.25-0.141 0.172-0.031 0.047h-0.031l-0.031 0.063-0.188 0.188-0.172 0.141-0.172 0.125-0.25 0.156-0.266 0.141-0.375 0.141-0.359 0.094-0.312 0.047-0.172 0.016h-0.375l-0.297-0.031-0.313-0.062-0.266-0.078-0.344-0.141-0.266-0.141-0.219-0.141-0.203-0.156-0.156-0.141-0.078-0.063v-0.031h-0.031l-0.109-0.125-0.141-0.156-0.203-0.281-0.156-0.281-0.125-0.266-0.125-0.375-0.078-0.375-0.031-0.281v-0.422l0.031-0.297 0.063-0.313 0.094-0.297 0.125-0.313 0.156-0.297 0.203-0.297 0.172-0.203 0.031-0.047h0.031l0.031-0.063 0.125-0.125 0.172-0.141 0.25-0.188 0.281-0.172 0.297-0.141 0.313-0.109 0.313-0.078 0.297-0.047 0.219-0.016z"></path>
<path fill="#ff5b02" d="M6.438 8.641h0.391l0.406 0.047 0.344 0.078 0.344 0.125 0.391 0.188 0.281 0.188 0.156 0.125 0.219 0.188 0.156 0.156 0.141 0.172 0.172 0.234 0.156 0.266 0.156 0.328 0.125 0.375 0.078 0.391 0.031 0.281v0.438l-0.047 0.359-0.094 0.391-0.141 0.375-0.188 0.359-0.156 0.234-0.141 0.188-0.219 0.234-0.219 0.203-0.297 0.219-0.328 0.188-0.359 0.156-0.313 0.094-0.391 0.078-0.359 0.031h-0.219l-0.344-0.031-0.328-0.063-0.313-0.094-0.297-0.125-0.328-0.172-0.25-0.172-0.156-0.125-0.188-0.172-0.188-0.188-0.172-0.219-0.141-0.203-0.156-0.266-0.156-0.359-0.094-0.297-0.078-0.391-0.031-0.297v-0.328l0.031-0.313 0.078-0.391 0.125-0.375 0.109-0.25 0.141-0.25 0.125-0.188 0.188-0.25 0.234-0.25 0.156-0.141 0.25-0.188 0.25-0.156 0.328-0.172 0.344-0.125 0.391-0.094 0.391-0.047z"></path>
<path fill="#ff5b02" d="M25.094 8.641h0.406l0.391 0.047 0.344 0.078 0.281 0.094 0.281 0.125 0.281 0.156 0.266 0.188 0.172 0.141 0.203 0.188v0.031h0.031l0.281 0.344 0.156 0.25 0.094 0.156 0.156 0.344 0.125 0.406 0.063 0.344 0.031 0.359v0.203l-0.047 0.453-0.094 0.391-0.094 0.281-0.125 0.281-0.141 0.25-0.187 0.266-0.141 0.172-0.219 0.234-0.203 0.172-0.281 0.203-0.25 0.141-0.328 0.156-0.391 0.125-0.406 0.078-0.344 0.031h-0.219l-0.344-0.031-0.391-0.078-0.422-0.141-0.266-0.125-0.313-0.188-0.25-0.188-0.188-0.172-0.125-0.109-0.109-0.125-0.188-0.234-0.156-0.234-0.203-0.391-0.141-0.391-0.078-0.344-0.047-0.344v-0.484l0.031-0.281 0.078-0.359 0.125-0.375 0.109-0.25 0.172-0.297 0.156-0.219 0.125-0.156 0.25-0.266 0.047-0.016v-0.031l0.172-0.141 0.234-0.172 0.297-0.172 0.328-0.156 0.344-0.109 0.281-0.063 0.375-0.047z"></path>
</svg>
