<!-- Generated by IcoMoon.io -->
<svg version="1.1" xmlns="http://www.w3.org/2000/svg" width="32" height="32" viewBox="0 0 32 32">
<path fill="#ff5b02" d="M22.641 1.031h0.078l0.5 0.5 0.094 0.078v0.031l0.062 0.031v0.031l0.063 0.031 0.781 0.781 0.094 0.078 1.344 1.344 0.125 0.109 1.188 1.188 0.094 0.078 0.078 0.094 0.125 0.109 1.203 1.203 0.094 0.078 0.063 0.063v0.031l0.062 0.031 0.844 0.844 0.094 0.078 1.109 1.109-0.047 0.172-0.219 0.609-0.234 0.578-0.141 0.313-0.172 0.375-0.25 0.5-0.156 0.281-0.172 0.297-0.234 0.375-0.125 0.188-0.172 0.25-0.203 0.281-0.203 0.266-0.141 0.172-0.172 0.203-0.141 0.156-0.109 0.125-0.219 0.234-0.422 0.422-0.125 0.109-0.219 0.203-0.172 0.141-0.203 0.172-0.219 0.172-0.25 0.188-0.563 0.406-0.5 0.328-0.297 0.188-0.328 0.203-0.344 0.203-0.438 0.25-0.453 0.25-0.438 0.234-0.297 0.156-1.25 0.625-0.359 0.172-0.516 0.25-0.438 0.203-0.625 0.297-0.516 0.234-0.297 0.141-0.641 0.281-0.547 0.234-0.562 0.234-0.625 0.25-0.734 0.281-0.641 0.234-0.656 0.234-1.125 0.375-0.656 0.203-0.062-0.031-0.141-0.156-0.063-0.047v-0.031l-0.062-0.031-1.203-1.203-0.125-0.109-0.953-0.953-0.125-0.109-0.109-0.109 0.016-0.109 0.359-1.094 0.234-0.672 0.297-0.813 0.297-0.766 0.188-0.469 0.219-0.531 0.234-0.547 0.219-0.5 0.188-0.422 0.109-0.234 0.281-0.594 0.25-0.516 0.172-0.359 0.188-0.375 0.172-0.359 0.219-0.438 0.141-0.266 0.281-0.563 0.141-0.25 0.125-0.25 0.203-0.375 0.203-0.359 0.219-0.391 0.219-0.375 0.219-0.359 0.234-0.375 0.375-0.563 0.203-0.297 0.203-0.281 0.25-0.328 0.172-0.219 0.172-0.203 0.125-0.156 0.156-0.172 0.109-0.125 0.281-0.313 0.297-0.297 0.125-0.109 0.078-0.078h0.031v-0.031l0.172-0.141 0.156-0.141 0.219-0.172 0.234-0.188 0.297-0.219 0.359-0.25 0.313-0.203 0.391-0.234 0.391-0.219 0.516-0.266 0.391-0.188 0.625-0.266 0.547-0.203 0.313-0.109 0.188-0.063zM21.609 6.547l-0.328 0.047-0.328 0.078-0.297 0.109-0.328 0.156-0.219 0.141-0.25 0.188-0.188 0.172-0.219 0.219-0.156 0.203-0.156 0.234-0.203 0.391-0.109 0.297-0.094 0.375-0.047 0.344v0.531l0.063 0.406 0.094 0.344 0.125 0.313 0.156 0.312 0.109 0.156 0.156 0.219 0.188 0.203 0.203 0.203 0.219 0.172 0.156 0.109 0.281 0.156 0.234 0.109 0.297 0.109 0.328 0.078 0.375 0.047h0.453l0.281-0.031 0.359-0.078 0.328-0.109 0.391-0.188 0.297-0.188 0.172-0.141 0.219-0.188 0.203-0.219 0.219-0.297 0.188-0.328 0.141-0.328 0.078-0.234 0.078-0.359 0.031-0.266v-0.5l-0.047-0.359-0.094-0.375-0.109-0.297-0.125-0.266-0.172-0.281-0.203-0.266-0.188-0.203-0.219-0.203-0.281-0.203-0.297-0.172-0.234-0.109-0.297-0.109-0.313-0.078-0.328-0.047h-0.594z"></path>
<path fill="#ff5b02" d="M28.516 0h2.875v0.016l0.281 0.016 0.062 0.031 0.015 0.906v1.281l-0.015 1-0.031 0.594-0.047 0.594-0.094 0.813-0.094 0.641-0.125 0.719-0.156 0.734-0.094 0.406h-0.063l-0.094-0.109-0.125-0.109-1.141-1.141-0.125-0.109-1.266-1.266-0.094-0.078v-0.031h-0.031v-0.031l-0.062-0.031v-0.031l-0.063-0.031-1.078-1.078-0.125-0.109v-0.031l-0.062-0.031-0.766-0.766-0.094-0.078-1.234-1.234-0.094-0.078-0.094-0.109-0.125-0.109-0.453-0.453 0.031-0.031 0.453-0.109 0.672-0.141 0.609-0.109 0.719-0.109 0.828-0.094 1.297-0.109z"></path>
<path fill="#ff5b02" d="M13.328 7.563h0.047l-0.016 0.078-0.094 0.156-0.094 0.172-0.203 0.375-0.188 0.344-0.281 0.531-0.219 0.422-0.141 0.266-0.5 1-0.172 0.359-0.156 0.328-0.125 0.25-0.297 0.609-0.234 0.516-0.203 0.438-0.406 0.938-0.219 0.531-0.109 0.25h-0.203l-0.859-0.063-3.469-0.266 0.016-0.078 0.125-0.25 0.188-0.359 0.266-0.438 0.125-0.188 0.266-0.391 0.156-0.203 0.141-0.188 0.141-0.172 0.125-0.156 0.172-0.203 0.141-0.156 0.016-0.031h0.031l0.031-0.063 0.234-0.25 0.109-0.125h0.031l0.031-0.063h0.031l0.031-0.063h0.031l0.031-0.062 0.188-0.188 0.125-0.109 0.141-0.141 0.125-0.109 0.172-0.156 0.172-0.141 0.156-0.141 0.172-0.141 0.563-0.438 0.297-0.219 0.313-0.219 0.234-0.156 0.313-0.203 0.328-0.203 0.344-0.203 0.391-0.219 0.344-0.188 0.625-0.313 0.438-0.203 0.219-0.094 0.016-0.016z"></path>
<path fill="#ff5b02" d="M24.109 18.219h0.031l-0.016 0.094-0.125 0.25-0.25 0.516-0.219 0.422-0.203 0.359-0.25 0.438-0.25 0.406-0.203 0.313-0.297 0.438-0.125 0.172-0.203 0.281-0.188 0.25-0.219 0.266-0.172 0.219-0.172 0.203-0.156 0.172-0.141 0.172-0.125 0.125-0.109 0.125-0.203 0.203-0.109 0.125-0.141 0.141h-0.031v0.031l-0.125 0.109-0.141 0.141h-0.031v0.031l-0.125 0.109-0.156 0.141-0.172 0.141-0.156 0.141-0.219 0.172-0.234 0.188-0.281 0.203-0.219 0.156-0.406 0.266-0.344 0.203-0.344 0.188-0.375 0.188-0.062-0.016-0.188-2.375-0.156-2v-0.094l0.078-0.047 1.094-0.453 0.547-0.234 0.703-0.313 0.406-0.188 0.734-0.328 0.938-0.438 0.781-0.391 0.297-0.156 0.609-0.313 0.438-0.219 0.344-0.188 0.406-0.219 0.172-0.094 0.063-0.031z"></path>
<path fill="#ff5b02" d="M8.563 22.844h0.141l0.125 0.031 0.141 0.078 0.094 0.078 0.109 0.188 0.016 0.063v0.25l-0.094 0.188-0.141 0.156-0.016 0.031h-0.031v0.031h-0.031l-0.031 0.063h-0.031l-0.031 0.063-0.391 0.391-0.109 0.125-0.391 0.391-0.109 0.125-0.5 0.5-0.109 0.125-0.375 0.375-0.016 0.031h-0.031l-0.031 0.062-0.406 0.406-0.109 0.125-0.438 0.438-0.031 0.047h-0.031l-0.031 0.062-0.516 0.516-0.109 0.125-0.375 0.375-0.016 0.031h-0.031l-0.031 0.062-0.406 0.406-0.016 0.031h-0.031l-0.031 0.062-0.469 0.469-0.031 0.047h-0.031l-0.031 0.062-0.516 0.516-0.109 0.125-0.375 0.375-0.016 0.031h-0.031l-0.031 0.062h-0.031l-0.031 0.063-0.438 0.437-0.109 0.125-0.359 0.359-0.156 0.094-0.094 0.031h-0.25l-0.156-0.063-0.125-0.109-0.094-0.156-0.047-0.141v-0.187l0.078-0.188 0.141-0.156 0.109-0.125 0.063-0.063h0.031l0.031-0.062 0.406-0.406 0.109-0.125 0.313-0.313 0.016-0.031h0.031v-0.031h0.031v-0.031h0.031l0.031-0.062 0.391-0.391 0.109-0.125 0.453-0.453 0.016-0.031h0.031l0.031-0.062h0.031l0.031-0.063 0.469-0.469 0.031-0.047h0.031l0.031-0.063 0.328-0.328 0.016-0.031h0.031v-0.031h0.031l0.031-0.062 0.422-0.422 0.109-0.125 0.391-0.391 0.016-0.031h0.031v-0.031h0.031v-0.031h0.031l0.031-0.063 0.516-0.516 0.109-0.125 0.266-0.266 0.016-0.031h0.031v-0.031h0.031v-0.031h0.031l0.031-0.062 0.391-0.391 0.109-0.125 0.453-0.453 0.016-0.031h0.031l0.031-0.063h0.031l0.031-0.063 0.469-0.469 0.109-0.125 0.25-0.25 0.016-0.031h0.031l0.031-0.063h0.031v-0.031l0.156-0.109 0.109-0.047 0.078-0.016z"></path>
<path fill="#ff5b02" d="M21.75 7.813h0.297l0.328 0.047 0.266 0.094 0.25 0.125 0.203 0.141 0.156 0.141 0.156 0.156 0.156 0.219 0.125 0.234 0.109 0.328 0.047 0.281v0.359l-0.063 0.344-0.109 0.297-0.141 0.25-0.141 0.188-0.125 0.141h-0.031v0.031l-0.266 0.203-0.297 0.156-0.281 0.094-0.234 0.047-0.141 0.016h-0.25l-0.313-0.047-0.25-0.078-0.266-0.125-0.188-0.125-0.172-0.141-0.141-0.141-0.125-0.156-0.125-0.203-0.125-0.266-0.078-0.281-0.031-0.203v-0.359l0.063-0.328 0.078-0.234 0.125-0.25 0.188-0.266 0.25-0.25 0.25-0.172 0.25-0.125 0.281-0.094 0.156-0.031 0.156-0.016z"></path>
<path fill="#ff5b02" d="M5.594 20.234h0.141l0.203 0.063 0.125 0.094 0.109 0.156 0.047 0.125v0.219l-0.047 0.141-0.125 0.172-0.141 0.172h-0.031l-0.031 0.063-0.203 0.219-0.109 0.125-0.141 0.156-0.109 0.125-0.141 0.156-0.109 0.125-0.172 0.188-0.109 0.125-0.156 0.172-0.109 0.125-0.281 0.313-0.109 0.125-0.141 0.156-0.141 0.172h-0.031l-0.031 0.063-0.203 0.219-0.109 0.125-0.156 0.172-0.109 0.125-0.281 0.313-0.188 0.219-0.188 0.203-0.109 0.125-0.172 0.188-0.109 0.125-0.172 0.188-0.141 0.172-0.109 0.109-0.109 0.125-0.141 0.156-0.109 0.125-0.156 0.172-0.172 0.109-0.188 0.047-0.203-0.031-0.125-0.062-0.109-0.094-0.078-0.109-0.063-0.172v-0.203l0.063-0.172 0.141-0.172 0.188-0.203 0.016-0.031h0.031l0.031-0.063 0.203-0.219 0.141-0.172 0.125-0.125 0.109-0.125 0.141-0.172h0.031l0.031-0.062 0.188-0.203 0.281-0.312 0.141-0.172 0.109-0.125h0.031l0.031-0.063 0.203-0.219 0.109-0.125 0.141-0.156 0.109-0.125 0.172-0.188 0.109-0.125 0.141-0.156 0.016-0.031h0.031l0.031-0.063 0.203-0.219 0.141-0.172 0.109-0.109 0.109-0.125 0.141-0.156 0.016-0.031h0.031l0.031-0.063 0.188-0.203 0.141-0.156 0.203-0.234 0.172-0.188 0.016-0.031h0.031l0.031-0.063 0.188-0.203 0.141-0.172 0.047-0.016v-0.031l0.156-0.094 0.156-0.047z"></path>
<path fill="#ff5b02" d="M11.188 25.453h0.172l0.156 0.047 0.172 0.125 0.094 0.141 0.047 0.125v0.234l-0.063 0.156-0.109 0.141-0.188 0.219-0.188 0.203-0.109 0.125-0.156 0.172-0.109 0.125-0.141 0.156-0.141 0.172h-0.031l-0.031 0.062-0.203 0.219-0.109 0.125-0.156 0.172-0.109 0.125-0.281 0.313-0.109 0.125-0.141 0.156-0.109 0.125-0.141 0.156-0.156 0.172-0.109 0.125-0.156 0.172-0.109 0.125-0.281 0.313-0.109 0.125-0.141 0.156-0.141 0.172h-0.031l-0.031 0.063-0.219 0.234-0.109 0.125-0.281 0.313-0.109 0.125-0.141 0.156-0.109 0.125-0.188 0.203-0.156 0.094-0.063 0.031h-0.297l-0.172-0.094-0.125-0.125-0.094-0.187-0.016-0.078v-0.141l0.047-0.156 0.094-0.141 0.172-0.187 0.141-0.172 0.094-0.109h0.031l0.031-0.062 0.203-0.219 0.109-0.125 0.141-0.156 0.109-0.125 0.141-0.156 0.016-0.031h0.031l0.031-0.062 0.203-0.219 0.016-0.031h0.031l0.031-0.062 0.203-0.219 0.141-0.172 0.109-0.109 0.109-0.125 0.141-0.156 0.016-0.031h0.031l0.031-0.063 0.172-0.187 0.109-0.125 0.172-0.188 0.109-0.125 0.141-0.156 0.016-0.031h0.031l0.031-0.063 0.203-0.219 0.109-0.125 0.141-0.156 0.109-0.125 0.141-0.156 0.016-0.031h0.031l0.031-0.062 0.188-0.203 0.141-0.156 0.156-0.172 0.141-0.172 0.094-0.109h0.031l0.031-0.062 0.234-0.25 0.125-0.094 0.172-0.063z"></path>
</svg>
