<svg xmlns="http://www.w3.org/2000/svg" width="36" height="36" fill="none" viewBox="0 0 36 36"><path fill="#ADADAD" d="m18 24 2.1-2.1-2.4-2.4H24v-3h-6.3l2.4-2.4L18 12l-6 6zm0 9q-3.112 0-5.85-1.181t-4.762-3.206Q5.362 26.588 4.18 23.85 3.001 21.113 3 18t1.181-5.85 3.207-4.762Q9.413 5.362 12.15 4.18 14.888 3.001 18 3t5.85 1.181 4.762 3.207q2.026 2.025 3.207 4.762Q32.999 14.888 33 18q0 3.112-1.181 5.85t-3.206 4.762q-2.025 2.026-4.763 3.207Q21.113 32.999 18 33m0-3q5.025 0 8.513-3.488Q29.999 23.026 30 18t-3.488-8.512Q23.026 6 18 6T9.488 9.488Q6 12.975 6 18t3.488 8.513T18 30"/></svg>