<svg width="30" height="34" viewBox="0 0 30 34" fill="none" xmlns="http://www.w3.org/2000/svg">
<path d="M14.0068 16.2374L0.12793 31.1751C0.129233 31.1777 0.129233 31.1817 0.130537 31.1843C0.556797 32.8063 2.01677 34 3.75049 34C4.44398 34 5.09445 33.8096 5.65237 33.4765L5.69669 33.4501L21.3184 24.309L14.0068 16.2374Z" fill="#EA4335"/>
<path d="M28.0474 13.6938L28.0343 13.6846L21.2898 9.72012L13.6914 16.5769L21.3172 24.3075L28.0252 20.3827C29.201 19.7376 30.0001 18.4805 30.0001 17.0317C30.0001 15.5908 29.2128 14.3402 28.0474 13.6938Z" fill="#FBBC04"/>
<path d="M0.127259 2.82385C0.0438324 3.13582 -0.000488281 3.46366 -0.000488281 3.80207V30.1982C-0.000488281 30.5366 0.0438324 30.8644 0.128563 31.175L14.4832 16.6194L0.127259 2.82385Z" fill="#4285F4"/>
<path d="M14.1093 16.9999L21.2919 9.71743L5.68838 0.543308C5.12134 0.198288 4.45913 0 3.75131 0C2.01759 0 0.555005 1.19634 0.128744 2.81965C0.128744 2.82097 0.127441 2.8223 0.127441 2.82362L14.1093 16.9999Z" fill="#34A853"/>
</svg>
